<svg id="visual" viewBox="0 0 900 900" width="900" height="900" xmlns="http://www.w3.org/2000/svg" xmlns:xlink="http://www.w3.org/1999/xlink" version="1.1"><rect x="0" y="0" width="900" height="900" fill="#000000"></rect><path d="M0 185L129 272L257 186L386 420L514 351L643 168L771 248L900 381L900 901L771 901L643 901L514 901L386 901L257 901L129 901L0 901Z" fill="#f5730a"></path><path d="M0 324L129 424L257 521L386 453L514 286L643 380L771 383L900 314L900 901L771 901L643 901L514 901L386 901L257 901L129 901L0 901Z" fill="#c95b24"></path><path d="M0 581L129 449L257 532L386 476L514 626L643 604L771 416L900 459L900 901L771 901L643 901L514 901L386 901L257 901L129 901L0 901Z" fill="#9a482b"></path><path d="M0 704L129 614L257 596L386 547L514 636L643 585L771 571L900 676L900 901L771 901L643 901L514 901L386 901L257 901L129 901L0 901Z" fill="#6a372b"></path><path d="M0 679L129 771L257 817L386 775L514 743L643 822L771 731L900 697L900 901L771 901L643 901L514 901L386 901L257 901L129 901L0 901Z" fill="#392825"></path></svg>