<?xml version="1.0" encoding="UTF-8" standalone="no"?>
<!-- Created with Inkscape (http://www.inkscape.org/) -->

<svg
   width="128"
   height="128"
   viewBox="0 0 33.866666 33.866666"
   version="1.1"
   id="svg1"
   xmlns:xlink="http://www.w3.org/1999/xlink"
   xmlns="http://www.w3.org/2000/svg"
   xmlns:svg="http://www.w3.org/2000/svg">
  <defs
     id="defs1">
    <linearGradient
       id="linearGradient17">
      <stop
         style="stop-color:#a3be8c;stop-opacity:1;"
         offset="0"
         id="stop17" />
      <stop
         style="stop-color:#a3be8c;stop-opacity:1;"
         offset="1"
         id="stop18" />
    </linearGradient>
    <linearGradient
       xlink:href="#linearGradient17"
       id="linearGradient16"
       x1="12.699999"
       y1="12.699999"
       x2="12.699999"
       y2="33.866665"
       gradientUnits="userSpaceOnUse"
       gradientTransform="translate(1.5e-7,0.41740001)" />
  </defs>
  <g
     id="layer1">
    <rect
       style="fill:#2b303b;fill-opacity:1;stroke-width:0.0491992"
       id="rect1"
       width="33.866665"
       height="33.866665"
       x="0"
       y="3.5527137e-15"
       ry="0" />
    <path
       d="m 33.866665,8.884066 -9.27758,9.27758 a 2.3650988,2.3650988 172.98188 0 1 -2.889211,0.355678 l -7.416417,-4.44985 a 2.5999109,2.5999109 175.57909 0 0 -3.002066,0.232098 L 1.5e-7,23.700732 0,34.284066 h 33.866666 z"
       style="fill:url(#linearGradient16);fill-opacity:1;stroke:none;stroke-width:1.37213;stroke-linecap:round;stroke-linejoin:round;stroke-dasharray:none;stroke-opacity:1"
       id="path15"
       transform="translate(0,-0.4174)" />
    <path
       d="M 33.866666,8.0610066 33.398478,8.527128 24.31066,17.617013 c -0.666229,0.666228 -1.692184,0.791194 -2.500105,0.306441 L 14.853357,13.750065 C 13.528743,12.955297 11.83929,13.08515 10.65258,14.074076 L 0,22.951571 v 1.722375 L 0.42374674,24.319962 11.500073,15.089518 c 0.758145,-0.631787 1.825425,-0.712386 2.671672,-0.204638 l 6.959265,4.173388 c 1.322618,0.793571 3.024334,0.584748 4.114994,-0.505912 l 8.620662,-8.6222127 z"
       style="fill:#fcfcfd;fill-opacity:1;stroke-width:0.0491992"
       id="path22" />
    <path
       style="color:#000000;fill:#bf616a;stroke:#2b313b;stroke-width:1.30995206;stroke-dasharray:none;stroke-opacity:1;paint-order:stroke fill markers;fill-opacity:1"
       d="M 16.596982,0.65492377 V 33.211742 h 0.673224 V 0.65492377 Z"
       id="path21" />
    <path
       style="fill:none;stroke:none;stroke-width:0.264583;stroke-linecap:square;stroke-dasharray:none;stroke-opacity:1"
       d="M 33.866666,10.583333 V 33.866666 H 0 v -8.466667"
       id="path13" />
  </g>
</svg>
